:SAMPLES-PER-SECOND 30
:FULLY-SPECIFIED
:DEGREES
591
root  -37.2005 38.7046 -26.8901 5.22958 77.6053 9.55899
RightUpLeg  -22.3874 -7.83337 -0.0885676
RightLeg  7.20031 -12.1791 3.15208
RightFoot  -1.22963 -0.159935 1.84268
RightToes  0.00048216 0.542163 -0.142577
Spine  13.0984 -2.79601 -0.544514
Spine1  10.4886 -4.48946 4.01768
HEad  -15.5865 3.33528 0.902307
LeftShoulder1  8.39714 -12.5212 -45.6863
LeftArm  3.44619 -4.42108 -34.5231
LeftForeArm  36.2527 -28.1468 -4.1241
LeftHand  -0.25398 0.0180481 5.50724
RightShoulder  4.9871 8.73108 34.8038
RightArm  -4.84778 -21.2797 38.3249
RightForeArm  12.0265 14.8805 5.79786
RightHand  -1.07586 2.59625 -15.8288
LeftUpLeg  20.8486 8.55287 -1.31156
LeftLeg  13.8223 7.43533 -1.1474
LeftFoot  -21.5134 -0.0331124 -1.81663
LeftToes  1.06247e-005 4.65855e-005 -8.18501e-006
592
root  -35.4238 38.5933 -26.5255 -0.034256 79.0096 4.4539
RightUpLeg  -23.2228 -12.1317 3.20669
RightLeg  12.8165 -7.18034 0.891013
RightFoot  2.73083 0.279292 -2.12834
RightToes  0.00048216 0.542163 -0.142577
Spine  12.4845 -3.20058 1.94984
Spine1  10.6666 -4.62285 3.92736
HEad  -15.8818 2.55206 0.130922
LeftShoulder1  8.5151 -12.6648 -45.925
LeftArm  3.08734 -1.98012 -34.422
LeftForeArm  38.1764 -30.8449 -4.62706
LeftHand  -0.25398 0.0180481 5.50724
RightShoulder  5.0049 8.69689 35.0593
RightArm  -8.85416 -21.8835 37.4783
RightForeArm  12.4563 13.1943 5.68075
RightHand  -1.06301 2.46896 -15.8711
LeftUpLeg  22.7407 11.7455 2.36573
LeftLeg  16.6513 2.00311 -0.226414
LeftFoot  -19.8239 -0.301136 -5.75837
LeftToes  1.06247e-005 4.65855e-005 -8.18501e-006
593
root  -33.559 38.5423 -26.1761 -8.11499 78.7594 -3.46539
RightUpLeg  -23.5842 -14.6054 6.23942
RightLeg  18.022 -2.62789 -0.732798
RightFoot  4.97294 0.69057 -4.61348
RightToes  0.00048216 0.542163 -0.142577
Spine  11.9935 -3.33689 5.86467
Spine1  10.5132 -3.88372 2.55717
HEad  -15.6447 2.07328 -1.01629
LeftShoulder1  8.63056 -12.7865 -46.2094
LeftArm  2.55835 1.5632 -34.0747
LeftForeArm  38.7241 -32.7147 -5.03411
LeftHand  -0.25398 0.0180481 5.50724
RightShoulder  5.08908 8.80855 35.3656
RightArm  -11.5913 -22.1942 36.4538
RightForeArm  11.4577 11.679 5.52439
RightHand  -1.10087 2.63547 -16.1006
LeftUpLeg  23.3055 13.2924 5.46206
LeftLeg  21.4095 0.243661 0.606265
LeftFoot  -15.4694 -0.259539 -10.188
LeftToes  1.06247e-005 4.65855e-005 -8.18501e-006
594
root  -31.7599 38.5605 -25.8041 -14.1506 77.9315 -9.71892
RightUpLeg  -23.0217 -13.6564 7.33187
RightLeg  22.1533 -2.16712 -1.25988
RightFoot  3.76302 0.823986 -6.03003
RightToes  0.00048216 0.542163 -0.142577
Spine  11.5245 -3.23655 9.16874
Spine1  9.97752 -3.02271 1.57823
HEad  -15.0481 1.77178 -1.69916
LeftShoulder1  8.64567 -12.764 -46.3581
LeftArm  2.12786 5.52605 -33.7938
LeftForeArm  37.3759 -33.2439 -5.23456
LeftHand  -0.25398 0.0180481 5.50724
RightShoulder  5.16868 8.97364 35.4554
RightArm  -12.7575 -21.8121 35.4596
RightForeArm  10.8176 10.5293 5.4288
RightHand  -1.04061 2.39571 -15.6778
LeftUpLeg  20.2246 12.5895 6.80208
LeftLeg  30.1181 3.08009 2.3438
LeftFoot  -5.84392 0.502773 -10.7821
LeftToes  1.06247e-005 4.65855e-005 -8.18501e-006
595
root  -30.1856 38.5693 -25.4089 -19.8298 77.8809 -16.1737
RightUpLeg  -22.5084 -13.4802 8.3936
RightLeg  25.3327 -2.72076 -1.63741
RightFoot  0.370172 0.713752 -6.91491
RightToes  0.00048216 0.542163 -0.142577
Spine  10.9488 -3.17554 11.3883
Spine1  9.55369 -2.60986 1.97064
HEad  -14.5809 1.27601 -1.61904
LeftShoulder1  8.55429 -12.6058 -46.3167
LeftArm  2.28015 8.79738 -33.6268
LeftForeArm  35.4038 -32.5547 -5.17644
LeftHand  -0.25398 0.0180481 5.50724
RightShoulder  5.1516 8.9649 35.349
RightArm  -12.3877 -20.6549 34.6805
RightForeArm  10.3981 10.6042 5.50846
RightHand  -0.938976 1.90463 -15.1051
LeftUpLeg  13.3481 11.0992 7.41255
LeftLeg  41.6173 5.43178 5.51759
LeftFoot  7.43448 1.08671 -6.91082
LeftToes  1.06247e-005 4.65855e-005 -8.18501e-006
596
root  -28.8031 38.5687 -25.0323 -27.1195 78.3711 -24.1763
RightUpLeg  -21.7276 -14.4041 9.60735
RightLeg  27.5902 -3.08303 -1.98984
RightFoot  -3.04368 0.490201 -7.00168
RightToes  0.00048216 0.542163 -0.142577
Spine  10.619 -3.19066 13.3408
Spine1  9.61026 -2.33671 2.87722
HEad  -14.5186 0.344719 -1.12394
LeftShoulder1  8.4788 -12.4782 -46.2729
LeftArm  2.91613 10.9069 -33.2743
LeftForeArm  34.7975 -31.3111 -4.91449
LeftHand  -0.25398 0.0180481 5.50724
RightShoulder  5.06483 8.75889 35.3363
RightArm  -10.5158 -18.9337 34.1089
RightForeArm  8.36133 12.3863 5.74884
RightHand  -1.01351 2.1819 -15.6724
LeftUpLeg  5.33414 8.59598 7.79635
LeftLeg  52.4036 5.26508 7.69205
LeftFoot  16.5461 0.845873 -3.72421
LeftToes  1.06247e-005 4.65855e-005 -8.18501e-006
597
root  -27.3693 38.7725 -24.6526 -30.4722 78.5981 -27.4029
RightUpLeg  -18.998 -15.475 9.51488
RightLeg  27.9042 -2.60145 -1.75295
RightFoot  -5.54119 0.27795 -6.20129
RightToes  0.00048216 0.542163 -0.142577
Spine  10.7108 -2.8637 14.348
Spine1  9.88443 -1.72592 3.04101
HEad  -14.7747 -0.797492 -0.510571
LeftShoulder1  8.48544 -12.4733 -46.3248
LeftArm  3.30143 12.4621 -32.5727
LeftForeArm  35.8905 -30.1031 -4.57767
LeftHand  -0.25398 0.0180481 5.50724
RightShoulder  5.01188 8.59125 35.4677
RightArm  -7.12671 -16.886 33.7972
RightForeArm  3.87363 15.483 5.78209
RightHand  -1.32889 3.50205 -17.5151
LeftUpLeg  -1.22618 6.82283 7.5038
LeftLeg  59.9914 3.92722 7.86432
LeftFoot  17.6887 0.636599 -2.87143
LeftToes  1.06247e-005 4.65855e-005 -8.18501e-006
598
root  -25.8528 39.125 -24.2491 -27.5756 78.6273 -23.8658
RightUpLeg  -14.7804 -16.3913 7.90266
RightLeg  26.7013 -1.4454 -0.881748
RightFoot  -7.58351 0.117532 -5.14467
RightToes  0.00048216 0.542163 -0.142577
Spine  10.8916 -2.25781 14.0142
Spine1  10.1238 -0.915626 2.55016
HEad  -14.8907 -1.72212 0.0748787
LeftShoulder1  8.4825 -12.4902 -46.2578
LeftArm  3.11601 14.3034 -31.7497
LeftForeArm  36.9145 -28.9661 -4.26933
LeftHand  -0.25398 0.0180481 5.50724
RightShoulder  5.00206 8.5678 35.4671
RightArm  -3.25741 -14.6772 33.9436
RightForeArm  -0.870459 19.1565 5.38198
RightHand  -1.65854 4.73748 -19.2168
LeftUpLeg  -6.36057 6.28111 6.33925
LeftLeg  63.7947 2.98037 7.23355
LeftFoot  14.1562 0.587874 -2.99646
LeftToes  1.06247e-005 4.65855e-005 -8.18501e-006
